<svg width="128" height="127" viewBox="0 0 128 127" fill="none" xmlns="http://www.w3.org/2000/svg">
<path d="M24.5337 56.5175L24.5337 64.9717L4.2271 64.9717C1.89254 64.9717 9.24992e-06 63.0792 9.35197e-06 60.7446C9.45402e-06 58.41 1.89254 56.5175 4.2271 56.5175L24.5337 56.5175Z" fill="#8D8983"/>
<path d="M39.7362 27.9167L33.7582 33.8948L19.3993 19.5358C17.7485 17.885 17.7485 15.2086 19.3993 13.5578C21.0501 11.907 23.7265 11.907 25.3773 13.5578L39.7362 27.9167Z" fill="#8D8983"/>
<path d="M62.359 102.466H70.8131V122.773C70.8131 125.107 68.9206 127 66.5861 127C64.2515 127 62.359 125.107 62.359 122.773V102.466Z" fill="#8D8983"/>
<path d="M33.7582 86.0562L39.7362 92.0342L25.3772 106.393C23.7265 108.044 21.05 108.044 19.3992 106.393C17.7485 104.742 17.7485 102.066 19.3992 100.415L33.7582 86.0562Z" fill="#8D8983"/>
<path d="M92.034 92.0341L98.012 86.0561L112.371 100.415C114.022 102.066 114.022 104.742 112.371 106.393C110.72 108.044 108.044 108.044 106.393 106.393L92.034 92.0341Z" fill="#8D8983"/>
<path fill-rule="evenodd" clip-rule="evenodd" d="M99.9895 69.043C115.939 66.0227 128 52.012 128 35.1843C128 16.1517 112.571 0.72275 93.5384 0.72275C78.3093 0.72275 65.3875 10.6011 60.831 24.2998C44.8818 27.3201 32.8206 41.3308 32.8206 58.1585C32.8206 77.1911 48.2495 92.6201 67.2821 92.6201C82.5112 92.6201 95.433 82.7417 99.9895 69.043ZM93.5384 69.6458C95.7432 69.6458 97.8997 69.4387 99.9895 69.043C101.127 65.6217 101.744 61.9621 101.744 58.1585C101.744 39.126 86.3147 23.697 67.2821 23.697C65.0773 23.697 62.9208 23.9041 60.831 24.2998C59.693 27.7211 59.0768 31.3807 59.0768 35.1843C59.0768 54.2169 74.5058 69.6458 93.5384 69.6458Z" fill="#8D8983"/>
</svg>
