<svg width="129" height="129" viewBox="0 0 129 129" fill="none" xmlns="http://www.w3.org/2000/svg">
<path fill-rule="evenodd" clip-rule="evenodd" d="M16 0C7.16344 0 0 7.16344 0 16V112.756C0 121.592 7.16344 128.756 16 128.756H112.756C121.592 128.756 128.756 121.592 128.756 112.756V16C128.756 7.16344 121.592 0 112.756 0H16ZM75.7795 4.59856C66.943 4.59856 59.7795 11.762 59.7795 20.5986V108.158C59.7795 116.994 66.943 124.158 75.7795 124.158H108.157C116.994 124.158 124.157 116.994 124.157 108.158V20.5986C124.157 11.762 116.994 4.59856 108.157 4.59856H75.7795Z" fill="#8D8983"/>
</svg>
