<svg width="134" height="144" viewBox="0 0 134 144" fill="none" xmlns="http://www.w3.org/2000/svg">
<path fill-rule="evenodd" clip-rule="evenodd" d="M15.8966 41C26.6941 63.8121 45.3869 78.8923 66.6379 78.8923C87.8888 78.8923 106.582 63.8121 117.379 41H115.161C104.516 62.8872 86.6005 76.8923 66.6379 76.8923C46.6752 76.8923 28.7593 62.8872 18.1148 41H15.8966Z" fill="#8D8983"/>
<path d="M15.8966 41V36H7.99818L11.3773 43.1391L15.8966 41ZM117.379 41L121.898 43.1391L125.278 36H117.379V41ZM115.161 41V36H112.033L110.664 38.8132L115.161 41ZM18.1148 41L22.6113 38.8132L21.2431 36H18.1148V41ZM11.3773 43.1391C22.6868 67.0329 42.8133 83.8923 66.6379 83.8923V73.8923C47.9606 73.8923 30.7014 60.5912 20.4159 38.8609L11.3773 43.1391ZM66.6379 83.8923C90.4625 83.8923 110.589 67.0329 121.898 43.1391L112.86 38.8609C102.574 60.5912 85.3152 73.8923 66.6379 73.8923V83.8923ZM117.379 36H115.161V46H117.379V36ZM66.6379 81.8923C89.1371 81.8923 108.488 66.1531 119.657 43.1868L110.664 38.8132C100.545 59.6214 84.064 71.8923 66.6379 71.8923V81.8923ZM13.6184 43.1868C24.7877 66.1531 44.1387 81.8923 66.6379 81.8923V71.8923C49.2117 71.8923 32.731 59.6214 22.6113 38.8132L13.6184 43.1868ZM18.1148 36H15.8966V46H18.1148V36Z" fill="#8D8983"/>
<path d="M64.0988 94.6804H73.1143V115.434C73.1143 117.924 71.0961 119.942 68.6065 119.942C66.117 119.942 64.0988 117.924 64.0988 115.434V94.6804Z" fill="#8D8983"/>
<path d="M106.172 80.4712L113.979 75.7346L123.801 93.6101C125.016 95.8202 124.252 98.6721 122.096 99.9801C119.94 101.288 117.208 100.557 115.993 98.3466L106.172 80.4712Z" fill="#8D8983"/>
<path d="M19.0208 75.7345L26.8285 80.471L17.0066 98.3465C15.7922 100.557 13.0599 101.288 10.9039 99.9799C8.74785 98.672 7.98448 95.82 9.19886 93.6099L19.0208 75.7345Z" fill="#8D8983"/>
</svg>
